<?xml version="1.0" encoding="UTF-8"?>
<svg version="1.1" xmlns="http://www.w3.org/2000/svg" width="318" height="159">
<path d="M0 0 C104.94 0 209.88 0 318 0 C318 52.47 318 104.94 318 159 C213.06 159 108.12 159 0 159 C0 106.53 0 54.06 0 0 Z " fill="#FEFEFE" transform="translate(0,0)"/>
<path d="M0 0 C10.36157848 -0.06948827 20.7231016 -0.12280533 31.08486557 -0.15543652 C35.89617896 -0.17109729 40.70733301 -0.19234311 45.51855469 -0.22631836 C50.16102923 -0.25889708 54.80335045 -0.27684991 59.44593048 -0.28463173 C61.21778019 -0.29017791 62.98962145 -0.30100818 64.76140594 -0.31719017 C67.24183841 -0.33894485 69.72163603 -0.34196778 72.20214844 -0.34057617 C72.93582642 -0.351362 73.66950439 -0.36214783 74.42541504 -0.3732605 C77.52020816 -0.35445366 79.70422548 -0.15724287 82.45880127 1.30717468 C84 3 84 3 84.45703125 6.42578125 C84.15659859 12.21341139 82.3612424 17.67458993 80.6875 23.1875 C80.37876953 24.25419922 80.07003906 25.32089844 79.75195312 26.41992188 C75.92710833 39.29555729 75.92710833 39.29555729 70 43 C66.64547871 44.11817376 64.13581736 44.1202587 60.60083008 44.11352539 C59.63456947 44.11374443 59.63456947 44.11374443 58.64878845 44.1139679 C56.52233498 44.11327195 54.3959694 44.10549448 52.26953125 44.09765625 C50.79408313 44.09579094 49.31863439 44.09436757 47.84318542 44.09336853 C43.96174405 44.08955226 40.08034015 44.07972956 36.19891357 44.06866455 C32.23743192 44.05843131 28.27594419 44.05386681 24.31445312 44.04882812 C16.54295167 44.0381065 8.77148109 44.02104075 1 44 C0.79698776 44.95669586 0.59397552 45.91339172 0.3848114 46.89907837 C0.11691299 48.15650848 -0.15098541 49.4139386 -0.42700195 50.70947266 C-0.69188919 51.95491852 -0.95677643 53.20036438 -1.22969055 54.48355103 C-2.59611872 60.72127137 -4.31471142 66.83997966 -6 73 C-10.62 73 -15.24 73 -20 73 C-18.4148862 65.51198843 -16.51031393 58.1181038 -14.54101562 50.72338867 C-13.99680491 48.67547661 -13.4592789 46.62587921 -12.921875 44.57617188 C-12.57332358 43.26291277 -12.22437932 41.94975785 -11.875 40.63671875 C-11.56304687 39.45811279 -11.25109375 38.27950684 -10.9296875 37.06518555 C-10 34 -10 34 -8 30 C15.76 30 39.52 30 64 30 C64.66 26.7 65.32 23.4 66 20 C66.99 17.525 66.99 17.525 68 15 C43.91 15 19.82 15 -5 15 C-2 4 -2 4 0 0 Z " fill="#787878" transform="translate(140,43)"/>
<path d="M0 0 C4.95 0 9.9 0 15 0 C13.62168431 6.41272697 12.05213578 12.7388689 10.3125 19.0625 C10.05702393 19.99481445 9.80154785 20.92712891 9.53833008 21.88769531 C7.47863289 29.35835639 5.34923229 36.80827449 3.1875 44.25 C2.88561768 45.29164307 2.58373535 46.33328613 2.27270508 47.40649414 C1.99064209 48.37063232 1.7085791 49.33477051 1.41796875 50.328125 C1.16813232 51.1830957 0.9182959 52.03806641 0.66088867 52.91894531 C0 55 0 55 -1 57 C17.81 57 36.62 57 56 57 C56.99 52.71 57.98 48.42 59 44 C59.72786271 41.26054412 60.46840027 38.53573304 61.25 35.8125 C63.49876275 27.84958029 65.66616828 19.86611702 67.8125 11.875 C68.12670898 10.70557861 68.44091797 9.53615723 68.76464844 8.33129883 C69.51035285 5.55435684 70.25526352 2.77720173 71 0 C75.95 0 80.9 0 86 0 C83.83609844 10.18306618 80.99950452 20.09227329 78.03515625 30.06640625 C76.74114805 34.43200486 75.48922778 38.80641871 74.27667236 43.19512939 C73.4907503 46.03721186 72.69399813 48.87621471 71.89678955 51.71514893 C71.50901523 53.10709386 71.12627355 54.50045118 70.74871826 55.89520264 C70.21688786 57.85697051 69.66545915 59.81339313 69.11328125 61.76953125 C68.80173096 62.89979736 68.49018066 64.03006348 68.16918945 65.19458008 C66.81040492 68.45492525 66.05031438 69.28134518 63 71 C60.42633019 71.28972455 58.0967219 71.41046367 55.52514648 71.38818359 C54.77835632 71.39344055 54.03156616 71.39869751 53.262146 71.40411377 C50.79824802 71.41729789 48.33499808 71.40858253 45.87109375 71.3984375 C44.15763729 71.40045849 42.44418167 71.40337013 40.73072815 71.40713501 C37.14209798 71.41155602 33.55369199 71.40513377 29.96508789 71.39111328 C25.36247925 71.37400851 20.76039492 71.38387199 16.15780544 71.40183067 C12.62079405 71.41266358 9.08390728 71.40922469 5.54689217 71.4014473 C3.84959921 71.39944459 2.15229497 71.40190705 0.45501518 71.40888596 C-1.91514259 71.4164939 -4.28444692 71.40490689 -6.65454102 71.38818359 C-7.35747787 71.39425629 -8.06041473 71.40032898 -8.78465271 71.40658569 C-11.61200458 71.36957443 -13.55506989 71.29933645 -15.93614197 69.69741821 C-18.20808239 66.07246738 -17.36445482 61.66708238 -16.49316406 57.68164062 C-15.76070483 55.01757264 -14.95417096 52.38557102 -14.125 49.75 C-13.48820751 47.65185255 -12.85429161 45.55283073 -12.22265625 43.453125 C-11.87219238 42.29103516 -11.52172852 41.12894531 -11.16064453 39.93164062 C-8.84496619 32.15480627 -6.72279168 24.32104707 -4.5625 16.5 C-4.10898092 14.86162757 -3.65536957 13.22328067 -3.20166016 11.58496094 C-2.13250778 7.72383684 -1.06631691 3.86191235 0 0 Z " fill="#757575" transform="translate(44,44)"/>
<path d="M0 0 C4.27390558 3.76052353 6.37496928 9.04160864 9 14 C10.32 9.38 11.64 4.76 13 0 C16.02709198 3.02709198 17.7202157 5.95649888 19.609375 9.71484375 C19.9404425 10.36699356 20.27151001 11.01914337 20.61260986 11.6910553 C21.30820973 13.06710422 22.0005884 14.44478563 22.68994141 15.82397461 C23.74779714 17.93310798 24.82447805 20.03189655 25.90234375 22.13085938 C26.57669551 23.47076361 27.24991177 24.81124006 27.921875 26.15234375 C28.24573181 26.77850082 28.56958862 27.4046579 28.90325928 28.04978943 C30.13490259 30.55218092 31.03694701 32.44297124 30.84985352 35.26367188 C29.35393591 38.31996777 26.70497469 40.35230583 24.1875 42.5625 C22.99736682 43.63278024 21.8072633 44.70309346 20.6171875 45.7734375 C20.01229492 46.31194336 19.40740234 46.85044922 18.78417969 47.40527344 C16.10046225 49.80402033 13.45865005 52.24750401 10.8125 54.6875 C5.56998536 59.49022979 0.29518435 64.25542111 -5 69 C-6.21065165 65.36804504 -5.62784815 63.93468371 -4.5625 60.3125 C-4.13130859 58.82169922 -4.13130859 58.82169922 -3.69140625 57.30078125 C-3.46324219 56.54152344 -3.23507812 55.78226563 -3 55 C-3.4846875 55.50789063 -3.969375 56.01578125 -4.46875 56.5390625 C-9.00885785 61.20140403 -13.67461903 65.26090272 -19 69 C-17.39310101 61.02672025 -15.23068275 53.32019169 -12.8125 45.5625 C-8.71176463 32.39182428 -5.2155715 19.07486885 -1.73681641 5.72949219 C-1.21671467 3.8028065 -0.63108031 1.89324092 0 0 Z " fill="#EB762F" transform="translate(260,44)"/>
<path d="M0 0 C1.93166016 0.01740234 1.93166016 0.01740234 3.90234375 0.03515625 C5.19269531 0.04417969 6.48304688 0.05320313 7.8125 0.0625 C8.81152344 0.07410156 9.81054688 0.08570313 10.83984375 0.09765625 C5.97681986 20.12563622 0.66565845 40.06002334 -5.09765625 59.84765625 C-5.39196533 60.85892578 -5.68627441 61.87019531 -5.98950195 62.91210938 C-8.02688556 69.83111487 -8.02688556 69.83111487 -9.16015625 72.09765625 C-13.78015625 72.09765625 -18.40015625 72.09765625 -23.16015625 72.09765625 C-21.65921312 64.09514037 -19.71197931 56.27126006 -17.59765625 48.41015625 C-17.42740936 47.77445709 -17.25716248 47.13875793 -17.08175659 46.48379517 C-14.24051476 35.88558 -11.26869373 25.32620579 -8.22265625 14.78515625 C-7.92716385 13.7577684 -7.92716385 13.7577684 -7.6257019 12.70962524 C-7.06938406 10.7792725 -6.50748774 8.85053004 -5.9453125 6.921875 C-5.6244165 5.81932373 -5.30352051 4.71677246 -4.97290039 3.58081055 C-3.8397266 0.11865657 -3.8397266 0.11865657 0 0 Z " fill="#767676" transform="translate(238.16015625,42.90234375)"/>
<path d="M0 0 C3.15500965 2.6745053 4.78447655 6.08434117 6.609375 9.71484375 C6.9404425 10.36699356 7.27151001 11.01914337 7.61260986 11.6910553 C8.30820973 13.06710422 9.0005884 14.44478563 9.68994141 15.82397461 C10.74779714 17.93310798 11.82447805 20.03189655 12.90234375 22.13085938 C13.57669551 23.47076361 14.24991177 24.81124006 14.921875 26.15234375 C15.24573181 26.77850082 15.56958862 27.4046579 15.90325928 28.04978943 C17.13490259 30.55218092 18.03694701 32.44297124 17.84985352 35.26367188 C16.35393591 38.31996777 13.70497469 40.35230583 11.1875 42.5625 C9.99736682 43.63278024 8.8072633 44.70309346 7.6171875 45.7734375 C7.01229492 46.31194336 6.40740234 46.85044922 5.78417969 47.40527344 C3.10046225 49.80402033 0.45865005 52.24750401 -2.1875 54.6875 C-7.43001464 59.49022979 -12.70481565 64.25542111 -18 69 C-19.760977 63.71706899 -17.31583076 58.86809451 -15 54 C-12.32594457 50.5866469 -9.29032229 47.81104457 -6 45 C-5.24332031 44.32710937 -4.48664063 43.65421875 -3.70703125 42.9609375 C-2.35743131 41.76620968 -0.99917879 40.58111642 0.37109375 39.41015625 C1.62607573 38.32370902 2.82625655 37.17374345 4 36 C3.747826 30.97092991 1.80116366 27.83284857 -0.8125 23.625 C-3.69031765 18.55677022 -4.37178197 15.02126088 -3.05932617 9.30615234 C-2.15907186 6.14836984 -1.14710235 3.07759168 0 0 Z " fill="#0E7B3C" transform="translate(273,44)"/>
</svg>
