<?xml version="1.0" encoding="UTF-8"?>
<svg version="1.1" xmlns="http://www.w3.org/2000/svg" width="3840" height="2160">
<path d="M0 0 C2.54552704 0.00084893 5.09105481 0.00036597 7.63658142 -0.00132751 C13.05846808 -0.0020036 18.48021345 0.00632531 23.902071 0.023386 C31.74060207 0.04803472 39.57908115 0.0556073 47.41764676 0.05934998 C60.14304457 0.06587454 72.86838386 0.08572561 85.59375 0.11425781 C97.93652051 0.14190296 110.27927498 0.16308495 122.62207031 0.17578125 C123.76818547 0.17696351 123.76818547 0.17696351 124.93745447 0.17816965 C128.77157889 0.18208548 132.60570343 0.18587643 136.43982804 0.18960536 C168.11935208 0.22057647 199.79880259 0.27352847 231.47827148 0.34057617 C236.35995236 22.08718202 241.11598871 43.85240127 245.62994623 65.67878246 C246.37649902 69.2854666 247.12617061 72.89150276 247.87545776 76.49761963 C249.16091641 82.68595 250.44473408 88.87461867 251.72735596 95.0635376 C253.77417604 104.9395063 255.82480173 114.81468294 257.8762207 124.68969727 C258.13667793 125.94349792 258.13667793 125.94349792 258.40239692 127.22262788 C259.10719128 130.61536959 259.81199847 134.00810863 260.51684988 137.40083849 C261.58240598 142.52981381 262.64772505 147.65883829 263.71286476 152.78790009 C270.36543239 184.8218722 277.05035325 216.84903282 283.74757385 248.87369537 C286.04942442 259.88073794 288.35048618 270.88794548 290.6516571 281.89513016 C291.2282675 284.65322897 291.8048989 287.41132339 292.38154602 290.16941452 C296.82242624 311.41032323 301.2578139 332.65237415 305.68920898 353.89526367 C305.91417419 354.97368345 305.91417419 354.97368345 306.14368415 356.07388949 C307.96593361 364.80933319 309.78798422 373.54481836 311.60996968 382.28031713 C314.49155511 396.09603822 317.37342823 409.91169931 320.25561523 423.72729492 C320.40539644 424.44526347 320.55517766 425.16323203 320.70949769 425.9029572 C327.50102761 458.45744647 334.30108114 491.01015308 341.10384083 523.56229734 C341.54118338 525.65504714 341.97852019 527.74779814 342.41585541 529.84054947 C347.76121071 555.41927916 353.10730413 580.99785456 358.45391667 606.57632148 C361.86065854 622.87435569 365.26716564 639.17243895 368.67328405 655.47060347 C368.95985419 656.84183013 369.24642601 658.21305644 369.53299952 659.5842824 C380.0425235 709.87134292 390.53507243 760.16193625 401.02318001 810.45346737 C413.81089504 871.77177572 426.61309071 933.08704065 439.42935753 994.39938736 C443.56813688 1014.19909882 447.70516381 1033.99917581 451.84098148 1053.79950613 C452.99335775 1059.31652921 454.14579604 1064.83353933 455.29827881 1070.35054016 C455.53971131 1071.50629381 455.53971131 1071.50629381 455.78602123 1072.68539602 C456.4314405 1075.77505619 457.07686165 1078.86471597 457.72228909 1081.95437443 C459.59669515 1090.92715819 461.47090979 1099.89998187 463.34479088 1108.87287527 C464.50459172 1114.42636533 465.66465766 1119.97979997 466.82492501 1125.53319257 C467.49262893 1128.72907159 468.16017412 1131.9249836 468.82747459 1135.12094688 C469.32230723 1137.49084233 469.81734086 1139.86069581 470.31260014 1142.23050213 C470.7691342 1144.41574876 471.22501161 1146.60113271 471.68014431 1148.78667164 C472.58935545 1153.14353883 473.50469299 1157.49766529 474.47970581 1161.84033203 C474.75630035 1163.07726807 475.0328949 1164.3142041 475.31787109 1165.58862305 C475.5472789 1166.58406128 475.77668671 1167.57949951 476.01304626 1168.60510254 C476.47827148 1171.34057617 476.47827148 1171.34057617 476.47827148 1177.34057617 C383.41827148 1177.34057617 290.35827148 1177.34057617 194.47827148 1177.34057617 C193.09164052 1173.18068328 191.99471791 1169.4495123 191.12576294 1165.20417786 C190.87636963 1163.99492142 190.62697632 1162.78566498 190.37002563 1161.5397644 C190.10021311 1160.21272127 189.83047058 1158.88566391 189.56079102 1157.55859375 C189.27174124 1156.15006595 188.98236491 1154.74160513 188.69268799 1153.33320618 C187.90829201 1149.51489191 187.12842414 1145.69566532 186.3493371 1141.87626481 C185.5291276 1137.85939334 184.70463582 1133.84340107 183.88058472 1129.82731628 C182.31711921 1122.20443792 180.75732421 1114.58081352 179.19892299 1106.95689839 C176.92475011 1095.83220425 174.64484864 1084.708684 172.36524773 1073.58510113 C172.02595553 1071.92943072 171.68666679 1070.27375961 171.34738159 1068.61808777 C171.1813559 1067.80792432 171.01533022 1066.99776087 170.84427345 1066.16304702 C169.86921105 1061.40438801 168.89508766 1056.64553806 167.92188489 1051.88649839 C167.31255846 1048.9070645 166.70281399 1045.92771622 166.09305739 1042.94837034 C165.66238459 1040.84303075 165.23237594 1038.73755622 164.80238533 1036.63207722 C163.61391013 1030.82028416 162.41587003 1025.01124747 161.16278076 1019.21298218 C160.97104719 1018.32305163 160.77931362 1017.43312109 160.58176994 1016.51622295 C160.24246987 1014.95091444 159.89889311 1013.38652219 159.54959297 1011.8234148 C158.75385665 1008.15800419 158.47827148 1005.14990891 158.47827148 1001.34057617 C29.44827148 1001.34057617 -99.58172852 1001.34057617 -232.52172852 1001.34057617 C-233.51172852 1004.64057617 -234.50172852 1007.94057617 -235.52172852 1011.34057617 C-236.14447582 1013.20593651 -236.78211206 1015.06649937 -237.44433594 1016.91821289 C-237.79353088 1017.89838379 -238.14272583 1018.87855469 -238.50250244 1019.88842773 C-238.87365173 1020.92193359 -239.24480103 1021.95543945 -239.62719727 1023.02026367 C-240.02308044 1024.12869629 -240.41896362 1025.23712891 -240.82684326 1026.37915039 C-242.1182728 1029.99226443 -243.41358746 1033.60397042 -244.70922852 1037.21557617 C-245.16109338 1038.47743751 -245.61284419 1039.7393397 -246.06448364 1041.00128174 C-252.75396379 1059.69235481 -259.50054942 1078.36230413 -266.30239868 1097.01278687 C-266.62485565 1097.89697296 -266.94731262 1098.78115906 -267.27954102 1099.69213867 C-267.60562347 1100.58623444 -267.93170593 1101.4803302 -268.26766968 1102.40151978 C-271.21532167 1110.48905926 -274.14724362 1118.58226846 -277.07641602 1126.67651367 C-277.31504679 1127.33589306 -277.55367756 1127.99527245 -277.79953957 1128.67463303 C-280.17593275 1135.24131292 -282.55142617 1141.80831793 -284.92612076 1148.37561226 C-286.01626605 1151.39009016 -287.10695535 1154.40437126 -288.19750977 1157.41870117 C-288.59054291 1158.5062973 -288.98357605 1159.59389343 -289.38851929 1160.71444702 C-289.75772491 1161.73479034 -290.12693054 1162.75513367 -290.50732422 1163.80639648 C-290.82546585 1164.68628235 -291.14360748 1165.56616821 -291.47138977 1166.47271729 C-292.80093844 1170.10293466 -294.16427522 1173.7207007 -295.52172852 1177.34057617 C-401.45172852 1177.34057617 -507.38172852 1177.34057617 -616.52172852 1177.34057617 C-614.50785892 1171.29896738 -612.43136466 1165.47911914 -609.95922852 1159.63745117 C-609.61598541 1158.81902237 -609.27274231 1158.00059357 -608.9190979 1157.15736389 C-607.78981931 1154.46708671 -606.6558045 1151.77883413 -605.52172852 1149.09057617 C-604.7159646 1147.17361297 -603.91046868 1145.2565371 -603.10522461 1143.33935547 C-597.07977611 1129.00261372 -591.0208807 1114.67992851 -584.96414185 1100.35638428 C-578.75115147 1085.66128647 -572.589317 1070.94543972 -566.45922852 1056.21557617 C-565.83375626 1054.71269043 -565.83375626 1054.71269043 -565.19564819 1053.17944336 C-563.52459111 1049.16402133 -561.85359787 1045.14857273 -560.18269348 1041.13308716 C-555.95228451 1030.96858749 -551.70957435 1020.80925415 -547.45922852 1010.65307617 C-547.09237946 1009.77644318 -546.7255304 1008.89981018 -546.3475647 1007.99661255 C-540.25064953 993.43173174 -534.10919888 978.88587684 -527.95846558 964.34365845 C-521.33868051 948.68861232 -514.7881493 933.00547738 -508.26202393 917.31118774 C-501.84079276 901.87181931 -495.36148713 886.45799834 -488.84448242 871.05883789 C-482.68726054 856.5065642 -476.58861718 841.93072648 -470.52172852 827.34057617 C-464.06823012 811.82067516 -457.57235359 796.31973362 -451.02172852 780.84057617 C-444.45355083 765.31845718 -437.93478796 749.77656587 -431.45922852 734.21557617 C-431.04206573 733.21319916 -430.62490295 732.21082214 -430.19509888 731.17807007 C-428.52423894 727.16312962 -426.85342987 723.14816801 -425.182724 719.13316345 C-420.95230812 708.968637 -416.70958492 698.80927941 -412.45922852 688.65307617 C-412.09237946 687.77644318 -411.7255304 686.89981018 -411.3475647 685.99661255 C-405.25064953 671.43173174 -399.10919888 656.88587684 -392.95846558 642.34365845 C-386.33868051 626.68861232 -379.7881493 611.00547738 -373.26202393 595.31118774 C-366.84079276 579.87181931 -360.36148713 564.45799834 -353.84448242 549.05883789 C-347.68726054 534.5065642 -341.58861718 519.93072648 -335.52172852 505.34057617 C-329.06823012 489.82067516 -322.57235359 474.31973362 -316.02172852 458.84057617 C-309.45355083 443.31845718 -302.93478796 427.77656587 -296.45922852 412.21557617 C-296.04206573 411.21319916 -295.62490295 410.21082214 -295.19509888 409.17807007 C-293.52423894 405.16312962 -291.85342987 401.14816801 -290.182724 397.13316345 C-285.95230812 386.968637 -281.70958492 376.80927941 -277.45922852 366.65307617 C-276.90895493 365.33812668 -276.90895493 365.33812668 -276.3475647 363.99661255 C-270.25064953 349.43173174 -264.10919888 334.88587684 -257.95846558 320.34365845 C-251.33868051 304.68861232 -244.7881493 289.00547738 -238.26202393 273.31118774 C-231.84079276 257.87181931 -225.36148713 242.45799834 -218.84448242 227.05883789 C-212.68726001 212.50656296 -206.58878471 197.93065764 -200.52172852 183.34057617 C-193.08777574 165.46492876 -185.60502874 147.61063187 -178.05322266 129.78442383 C-177.28230277 127.9646018 -176.51138794 126.14477763 -175.74047852 124.32495117 C-175.37155991 123.45425995 -175.0026413 122.58356873 -174.62254333 121.68649292 C-172.47255349 116.60640882 -170.34468124 111.5179057 -168.24047852 106.41870117 C-158.53549281 82.96622171 -147.4730519 62.37587035 -130.52172852 43.34057617 C-129.87848633 42.61225586 -129.23524414 41.88393555 -128.57250977 41.13354492 C-95.81449382 6.24377089 -45.21706808 -0.21530239 0 0 Z M15.47827148 322.34057617 C15.12861328 323.35514893 14.77895508 324.36972168 14.41870117 325.41503906 C5.72074488 350.62255922 -3.24745456 375.72318836 -12.39355469 400.77148438 C-16.68412369 412.5242668 -20.94479002 424.28370284 -25.08422852 436.09057617 C-30.53027682 451.58208936 -36.30751471 466.94956911 -42.05664062 482.33056641 C-47.63388898 497.25428398 -53.16269302 512.19486047 -58.64672852 527.15307617 C-60.13748784 531.21822659 -61.62836769 535.28333278 -63.11938477 539.34838867 C-63.48508575 540.34548355 -63.85078674 541.34257843 -64.22756958 542.36988831 C-68.16293816 553.09551214 -72.12157011 563.81251008 -76.08422852 574.52807617 C-76.43326233 575.47196198 -76.78229614 576.41584778 -77.14190674 577.38833618 C-78.89859286 582.13863758 -80.65563084 586.88880874 -82.4128418 591.63891602 C-85.59668228 600.24603893 -88.7773143 608.85434763 -91.95822144 617.46255493 C-93.72926218 622.25527609 -95.50050549 627.04792238 -97.27172852 631.84057617 C-97.98006282 633.75724248 -98.68839616 635.67390915 -99.39672852 637.59057617 C-100.81339518 641.42390951 -102.23006185 645.25724284 -103.64672852 649.09057617 C-104.17259804 650.5135199 -104.17259804 650.5135199 -104.70909119 651.96520996 C-105.41787761 653.88309906 -106.12666872 655.80098642 -106.83546448 657.71887207 C-108.59940367 662.49182147 -110.3632633 667.26480024 -112.12695312 672.0378418 C-115.3963028 680.88536996 -118.66638124 689.73262644 -121.9392395 698.57885742 C-123.45678722 702.68079531 -124.97389178 706.78289704 -126.4909668 710.88500977 C-127.20249891 712.80859346 -127.91423929 714.73210014 -128.6262207 716.65551758 C-130.59195353 721.96602917 -132.55400569 727.27787038 -134.50982666 732.59204102 C-135.22001928 734.52107135 -135.93116172 736.44975214 -136.64300537 738.37817383 C-137.77129616 741.43733738 -138.89508544 744.49812053 -140.01782227 747.55932617 C-140.36877457 748.50892212 -140.71972687 749.45851807 -141.08131409 750.43688965 C-141.40123825 751.31196167 -141.72116241 752.18703369 -142.05078125 753.08862305 C-142.33541733 753.86298706 -142.62005341 754.63735107 -142.91331482 755.43518066 C-143.62312194 757.32475187 -143.62312194 757.32475187 -143.52172852 759.34057617 C-60.69172852 759.34057617 22.13827148 759.34057617 107.47827148 759.34057617 C103.28206791 737.48387394 103.28206791 737.48387394 98.86602783 715.67381287 C98.65700081 714.66791044 98.44797379 713.66200802 98.23261261 712.6256237 C97.9075536 711.06140018 97.9075536 711.06140018 97.57592773 709.46557617 C97.10509879 707.19246728 96.63446331 704.91931832 96.16400146 702.64613342 C95.15460097 697.77025042 94.14419517 692.89457737 93.13296509 688.01907349 C90.48960434 675.27353173 87.85269655 662.52665385 85.21589446 649.77975392 C84.7728715 647.63817261 84.32978175 645.49660513 83.88668251 643.3550396 C79.21656581 620.78236678 74.56727247 598.20546117 69.93139648 575.62573242 C69.77418916 574.86005085 69.61698184 574.09436929 69.45501065 573.30548525 C67.70363682 564.77522088 65.95270658 556.24486549 64.20193481 547.71447754 C54.54529679 500.66423977 44.86742572 453.61864254 35.10327148 406.59057617 C34.88048649 405.51725666 34.65770149 404.44393715 34.42816544 403.3380928 C28.82209948 376.32962755 23.17754781 349.32953074 17.47827148 322.34057617 C16.81827148 322.34057617 16.15827148 322.34057617 15.47827148 322.34057617 Z " fill="#0056A3" transform="translate(3335.521728515625,488.659423828125)"/>
<path d="M0 0 C47.61571528 -0.05140349 95.23143261 -0.09915897 142.84716797 -0.12702942 C143.55295258 -0.12744359 144.2587372 -0.12785776 144.98590922 -0.12828448 C160.32797716 -0.13726517 175.67004538 -0.14557544 191.01211405 -0.15319599 C198.53688469 -0.15693769 206.06165525 -0.16082739 213.58642578 -0.16479492 C214.70957727 -0.16538334 214.70957727 -0.16538334 215.85541868 -0.16598364 C240.0840854 -0.17874624 264.312731 -0.20126407 288.54138495 -0.22889166 C313.45902148 -0.257253 338.37664634 -0.27567103 363.29429873 -0.28174497 C366.82133143 -0.28260932 370.34836408 -0.28358622 373.87539673 -0.28463173 C374.91655654 -0.28493513 374.91655654 -0.28493513 375.97874988 -0.28524467 C387.10970862 -0.28877687 398.24063107 -0.30265584 409.37157506 -0.3204961 C420.58751333 -0.33824844 431.8034167 -0.3446402 443.01937193 -0.34050413 C449.08603497 -0.33859141 455.15259234 -0.34142771 461.21923637 -0.35761642 C466.79032084 -0.37237295 472.36123003 -0.37285183 477.9323231 -0.36269668 C479.93139454 -0.36144432 481.93047759 -0.36511523 483.92952669 -0.37464955 C525.82982385 -0.56261697 567.00962211 8.07120295 598.40625 37.34765625 C623.82217538 63.33773657 630.02875976 99.64090825 636.68594551 133.85537934 C637.53164537 138.19115275 638.387872 142.5248486 639.24279785 146.85881042 C640.70418253 154.27443399 642.15917052 161.69128786 643.60955811 169.10906982 C645.70668707 179.83437959 647.81405671 190.55765797 649.92391324 201.28047037 C653.20435321 217.95347189 656.47792897 234.62781093 659.74609375 251.30322266 C663.35320329 269.70778745 666.96973635 288.11047561 670.59375 306.51171875 C671.5757214 311.49844633 672.5576413 316.48518405 673.53955078 321.47192383 C673.77540956 322.66969295 674.01126835 323.86746206 674.25427437 325.10152721 C675.91184432 333.52008761 677.56754151 341.9390149 679.22216797 350.3581543 C679.45784674 351.55734277 679.69352551 352.75653124 679.93634605 353.99205875 C680.4137631 356.42130012 680.89117946 358.85054161 681.36859512 361.27978325 C685.85506269 384.10734452 690.35025754 406.93317329 694.8515625 429.7578125 C695.07058389 430.86841581 695.07058389 430.86841581 695.29402995 432.00145555 C698.12598687 446.36150858 700.95853528 460.72144493 703.79165649 475.08126831 C705.56837504 484.08668373 707.34487956 493.09214134 709.12109375 502.09765625 C709.3394507 503.20472164 709.3394507 503.20472164 709.5622189 504.33415198 C713.77190845 525.67776898 717.97114646 547.02340765 722.16015625 568.37109375 C732.84111242 622.79356662 743.60170463 677.19915678 754.4790473 731.58268595 C754.9371494 733.87324696 755.39514611 736.16382902 755.85310745 738.45441818 C757.58153671 747.09934265 759.31116772 755.74402506 761.04288101 764.38829231 C761.57036054 767.02136201 762.09740292 769.65451802 762.62423325 772.28771782 C763.34480455 775.8884563 764.06661722 779.48894358 764.78881836 783.08935547 C765.00004869 784.14596595 765.21127901 785.20257643 765.42891026 786.29120541 C765.6227225 787.25599599 765.81653475 788.22078657 766.01622009 789.21481323 C766.18323394 790.04820662 766.35024778 790.8816 766.52232265 791.74024773 C766.9665355 793.8416892 767.46384273 795.92033034 768 798 C778.74912192 769.17406359 789.47805863 740.34069822 800.1875 711.5 C800.46844261 710.7434185 800.74938522 709.98683701 801.03884125 709.2073288 C801.60698875 707.67729904 802.17513577 706.14726911 802.74328232 704.617239 C804.13481926 700.86981664 805.52638142 697.12240365 806.91796875 693.375 C807.18756409 692.64900227 807.45715942 691.92300453 807.73492432 691.17500687 C812.15162701 679.28147953 816.57340981 667.38985096 821 655.5 C828.01012486 636.67042596 835.00523674 617.83528435 842 599 C849.29326372 579.36092276 856.58822266 559.7224944 863.89746094 540.08935547 C870.31999535 522.83700388 876.7287959 505.57955663 883.13764191 488.32211685 C898.23612117 447.6656501 898.23612117 447.6656501 905.625 427.8125 C905.94059875 426.96450836 906.25619751 426.11651672 906.58135986 425.24282837 C909.01926195 418.69262366 911.45772641 412.14262836 913.89624023 405.59265137 C916.05611182 399.79104031 918.21572068 393.98933152 920.375 388.1875 C920.84718964 386.91877548 920.84718964 386.91877548 921.32891846 385.62442017 C928.80385322 365.53838329 936.26360151 345.4467052 943.72479248 325.3555603 C950.44319472 307.26465536 957.16440968 289.17481471 963.89746094 271.08935547 C970.60806185 253.06319337 977.3037371 235.03149173 984 217 C991.29326372 197.36092276 998.58822266 177.7224944 1005.89746094 158.08935547 C1011.74495736 142.38168343 1017.58107933 126.66979402 1023.41612244 110.95749283 C1025.41389848 105.57801981 1027.41194647 100.19864786 1029.41015625 94.81933594 C1030.2476719 92.56465964 1031.08518579 90.30998269 1031.92269897 88.05530548 C1032.47333417 86.5729382 1033.023973 85.09057227 1033.57461548 83.6082077 C1036.63433512 75.37113599 1039.69293094 67.13365053 1042.7487793 58.8951416 C1044.17784238 55.04305295 1045.608058 51.19139297 1047.03857422 47.33984375 C1047.657939 45.67142791 1048.27679387 44.00282265 1048.89501953 42.33398438 C1054.14105 28.17357922 1059.57820745 14.09666062 1065 0 C1171.59 0 1278.18 0 1388 0 C1386.0453332 6.51555599 1384.06938086 12.64785585 1381.47265625 18.87890625 C1381.13223801 19.70695267 1380.79181976 20.53499908 1380.44108582 21.38813782 C1379.31914861 24.11470157 1378.19073749 26.838538 1377.0625 29.5625 C1376.25759546 31.51621536 1375.45324596 33.47015947 1374.64941406 35.42431641 C1372.95756893 39.53666338 1371.26378375 43.64820346 1369.56884766 47.75927734 C1365.8518638 56.78167419 1362.16702594 65.81717494 1358.48245239 74.85284424 C1357.23609732 77.90909144 1355.98910359 80.96507737 1354.74194336 84.02099609 C1346.21091706 104.9258829 1337.69325286 125.83621508 1329.17626953 146.74682617 C1324.57525604 158.04307979 1319.9732082 169.3389119 1315.37106323 180.63470459 C1314.00261159 183.99358981 1312.6342296 187.35250341 1311.26586914 190.71142578 C1307.0764888 200.99501505 1302.88671661 211.27844403 1298.69537354 221.56123352 C1286.01104541 252.67705443 1286.01104541 252.67705443 1273.375 283.8125 C1266.90998668 299.77940094 1260.40247926 315.72882174 1253.88964844 331.67626953 C1247.62741551 347.01035625 1241.37336615 362.34775765 1235.125 377.6875 C1234.44000931 379.36910721 1234.44000931 379.36910721 1233.74118042 381.08468628 C1231.42143443 386.77956348 1229.10179982 392.47448604 1226.78222656 398.16943359 C1222.64584297 408.32479723 1218.50841292 418.47973452 1214.37106323 428.63470459 C1213.00261159 431.99358981 1211.6342296 435.35250341 1210.26586914 438.71142578 C1206.0764888 448.99501505 1201.88671661 459.27844403 1197.69537354 469.56123352 C1185.01104541 500.67705443 1185.01104541 500.67705443 1172.375 531.8125 C1165.90998668 547.77940094 1159.40247926 563.72882174 1152.88964844 579.67626953 C1146.62741551 595.01035625 1140.37336615 610.34775765 1134.125 625.6875 C1133.44000931 627.36910721 1133.44000931 627.36910721 1132.74118042 629.08468628 C1130.42143443 634.77956348 1128.10179982 640.47448604 1125.78222656 646.16943359 C1121.64584297 656.32479723 1117.50841292 666.47973452 1113.37106323 676.63470459 C1112.00261159 679.99358981 1110.6342296 683.35250341 1109.26586914 686.71142578 C1105.0764888 696.99501505 1100.88671661 707.27844403 1096.69537354 717.56123352 C1084.01104541 748.67705443 1084.01104541 748.67705443 1071.375 779.8125 C1064.90998668 795.77940094 1058.40247926 811.72882174 1051.88964844 827.67626953 C1045.62741551 843.01035625 1039.37336615 858.34775765 1033.125 873.6875 C1032.44000931 875.36910721 1032.44000931 875.36910721 1031.74118042 877.08468628 C1029.42143443 882.77956348 1027.10179982 888.47448604 1024.78222656 894.16943359 C1020.6464779 904.32323841 1016.50969463 914.47662172 1012.37298584 924.6300354 C1010.08194784 930.25333953 1007.79097735 935.87667116 1005.5 941.5 C1004.58333366 943.75000013 1003.66666699 946.00000013 1002.75 948.25 C1002.069375 949.920625 1002.069375 949.920625 1001.375 951.625 C1000 955 998.625 958.375 997.25 961.75 C996.79628525 962.8636644 996.3425705 963.9773288 995.87510681 965.1247406 C994.95808669 967.37560632 994.04106398 969.62647098 993.1240387 971.87733459 C990.8377587 977.48908049 988.5515231 983.10084446 986.26538086 988.71264648 C982.0761555 998.99582568 977.8865512 1009.27884986 973.69537354 1019.56123352 C964.94708594 1041.02383861 956.19946731 1062.4865934 947.50161743 1083.96969604 C940.34505313 1101.64319177 933.13207319 1119.29364645 925.921875 1136.9453125 C920.60773161 1149.96074624 915.30423115 1162.98052354 910 1176 C803.41 1176 696.82 1176 587 1176 C585.07807507 1170.23422522 583.26853777 1164.57220458 581.73291016 1158.71191406 C581.52480178 1157.92735462 581.3166934 1157.14279518 581.10227871 1156.33446121 C580.41184208 1153.72888811 579.72547542 1151.12226073 579.0390625 1148.515625 C578.54083138 1146.63245663 578.04232417 1144.74936129 577.54356384 1142.86633301 C576.46819771 1138.80433816 575.39456918 1134.74188959 574.32229614 1130.67907715 C572.59530796 1124.13586347 570.86436253 1117.59370092 569.13256836 1111.05175781 C568.83717635 1109.93586651 568.54178434 1108.8199752 568.23744106 1107.67026901 C567.63267865 1105.38569856 567.02790504 1103.10113107 566.4231205 1100.81656647 C565.49487949 1097.30964665 564.5670081 1093.8026292 563.63920593 1090.29559326 C559.36498762 1074.14149241 555.07659329 1057.99120633 550.77734375 1041.84375 C550.33211868 1040.17150675 550.33211868 1040.17150675 549.87789917 1038.4654808 C548.37613257 1032.82522176 546.8741239 1027.18502721 545.37200928 1021.54486084 C535.21688332 983.4131239 525.09147772 945.27363009 515 907.125 C512.75662826 898.64450007 510.51324396 890.16400348 508.26953125 881.68359375 C507.99947517 880.66288095 507.7294191 879.64216816 507.4511795 878.59052467 C502.21091914 858.78571001 496.95371244 838.98542797 491.6875 819.1875 C491.48206573 818.41518539 491.27663147 817.64287079 491.06497192 816.84715271 C490.64805074 815.27978881 490.23112657 813.71242571 489.81419945 812.1450634 C488.74459084 808.12406112 487.67501726 804.10304952 486.60546875 800.08203125 C486.38870861 799.26713604 486.17194847 798.45224083 485.94861984 797.61265182 C481.97793026 782.68443285 478.01354157 767.75454434 474.05078125 752.82421875 C473.7468898 751.67927696 473.44299835 750.53433517 473.12989807 749.35469818 C471.56005245 743.44010881 469.99025264 737.52550728 468.42047119 731.61090088 C467.78031499 729.19893369 467.14015792 726.78696673 466.5 724.375 C466.02406025 722.58176929 466.02406025 722.58176929 465.53850555 720.75231171 C458.22747657 693.20649647 450.91294418 665.66162473 443.58203125 638.12109375 C443.28018291 636.98710522 442.97833458 635.85311668 442.66733932 634.68476486 C441.15182706 628.99136384 439.63623127 623.29798505 438.12060547 617.60461426 C427.1944285 576.56075878 416.30190408 535.50815154 405.43990707 494.44726562 C398.53792254 468.3565455 391.62507268 442.26878059 384.6875 416.1875 C384.3793486 415.02902809 384.3793486 415.02902809 384.06497192 413.84715271 C383.64805074 412.27978881 383.23112657 410.71242571 382.81419945 409.1450634 C381.74459084 405.12406112 380.67501726 401.10304952 379.60546875 397.08203125 C379.38870861 396.26713604 379.17194847 395.45224083 378.94861984 394.61265182 C376.17898669 384.19992894 373.41170616 373.78658352 370.64697266 363.37255859 C370.35626137 362.27763375 370.06555008 361.18270891 369.76602936 360.05460453 C368.24332847 354.31891728 366.72162757 348.58296712 365.20147705 342.84660339 C362.35397108 332.10458632 359.50086895 321.3642317 356.61712646 310.63187695 C354.99988415 304.61241978 353.38742135 298.59168974 351.77734375 292.5703125 C351.45589134 291.36852167 351.13443893 290.16673084 350.80324554 288.92852211 C346.43851875 272.57486548 342.28911401 256.17812169 338.31546021 239.7258606 C336.17447625 230.8638546 333.97404546 222.01691532 331.760149 213.17287254 C330.26009876 207.1604609 328.79601832 201.14383768 327.41357422 195.10321045 C322.67906128 167.52034792 322.67906128 167.52034792 306.47909546 146.45181274 C302.60125215 144.51119859 298.74145326 143.0248841 294.58377075 141.80126953 C291.01479907 140.69447309 288.17024572 139.03112482 284.96484375 137.1171875 C254.67000575 120.73289322 223.85409136 105.53355877 192.20336914 91.94671631 C190.02407547 91.01034445 187.84684797 90.06930243 185.66992188 89.12744141 C124.22282058 62.59904467 60.53988461 42.45295095 -4 25 C-3.62938128 18.73782161 -2.81008872 12.73203734 -1.45703125 6.6015625 C-1.04868042 4.73878662 -1.04868042 4.73878662 -0.63208008 2.83837891 C-0.31920044 1.43338135 -0.31920044 1.43338135 0 0 Z " fill="#0056A3" transform="translate(58,489)"/>
<path d="M0 0 C1.24218198 -0.00424107 1.24218198 -0.00424107 2.50945854 -0.00856781 C6.91280285 -0.02343489 11.31611559 -0.0327366 15.71948242 -0.03710938 C19.25865278 -0.04144227 22.79757221 -0.05514814 26.33666992 -0.078125 C45.75864667 -0.20146922 65.05355461 0.08723881 84.42578125 1.578125 C85.228183 1.63980614 86.03058475 1.70148727 86.85730171 1.76503754 C154.55365853 7.09249967 234.64086607 18.14930034 296.02734375 49.203125 C297.65620091 52.46083932 296.44510882 55.84024172 295.85923767 59.31892395 C295.72140116 60.16840707 295.58356465 61.01789019 295.44155127 61.89311522 C294.97491342 64.75896824 294.49901124 67.62320674 294.02319336 70.48754883 C293.687697 72.5360673 293.35276994 74.58467908 293.01837158 76.63337708 C292.10429369 82.22330149 291.18222124 87.81188178 290.25880885 93.4002707 C289.28934558 99.27590475 288.3272552 105.15274566 287.36439514 111.02946472 C285.5314831 122.20948927 283.69203644 133.3884284 281.85022312 144.5669896 C279.57631812 158.36993367 277.31054662 172.17421046 275.04492188 185.97851562 C272.72193024 200.13097729 270.39816408 214.28330879 268.06907654 228.43476868 C267.88984467 229.52426333 267.7106128 230.61375798 267.52594966 231.73626763 C266.65667786 237.02018722 265.78653633 242.30396006 264.91444302 247.58741474 C263.32897932 257.20364366 261.76414391 266.82234195 260.24978638 276.45004272 C259.9727264 278.20059256 259.69554414 279.95112305 259.4182291 281.7016325 C258.90895298 284.91641114 258.40902552 288.1324444 257.91471004 291.34955311 C257.69157089 292.76200055 257.46807602 294.17439186 257.24415588 295.5867157 C256.96184034 297.40754685 256.96184034 297.40754685 256.67382145 299.26516247 C256.02734375 302.203125 256.02734375 302.203125 254.02734375 305.203125 C253.20572754 304.81680908 252.38411133 304.43049316 251.53759766 304.0324707 C189.14402784 274.83586656 124.94661096 254.99646939 56.02734375 249.203125 C54.98288086 249.10668701 53.93841797 249.01024902 52.86230469 248.91088867 C40.61579561 247.91689982 28.34033226 248.01705272 16.06152344 248.01782227 C12.19584914 248.01564945 8.33046731 247.99747925 4.46484375 247.97851562 C-16.3186334 247.93026635 -37.04110573 248.69264587 -57.53515625 252.390625 C-58.73640137 252.60420654 -59.93764648 252.81778809 -61.17529297 253.0378418 C-97.38538871 259.77854921 -138.02025916 274.7214706 -159.77636719 306.39501953 C-170.92830283 323.56477403 -176.23088258 342.79845736 -172.3203125 363.22265625 C-165.72294043 388.45123355 -146.27039104 407.21089537 -125.97265625 422.203125 C-125.32699707 422.68249512 -124.68133789 423.16186523 -124.01611328 423.65576172 C-112.78060367 431.94102811 -101.03786035 439.19729996 -88.97265625 446.203125 C-88.15345703 446.68217285 -87.33425781 447.1612207 -86.49023438 447.65478516 C-53.52599722 466.90563907 -19.35060038 484.12791716 14.84472656 501.06811523 C29.51291096 508.33550383 43.91117667 515.89791626 58.02734375 524.203125 C58.87361328 524.69586914 59.71988281 525.18861328 60.59179688 525.69628906 C93.65928294 544.97085212 124.76718477 567.38143891 153.02734375 593.203125 C154.02848349 594.11085617 155.02979328 595.01839981 156.03125 595.92578125 C163.71497447 602.90496358 171.24311008 609.95105583 178.00390625 617.84375 C179.54417561 619.63973975 181.10532721 621.41784382 182.67578125 623.1875 C222.10314428 667.87668626 246.8323255 723.76245106 252.02734375 783.203125 C252.13820313 784.4509375 252.2490625 785.69875 252.36328125 786.984375 C259.12092691 876.84279839 232.03668122 968.64234201 176.02734375 1039.203125 C175.3003125 1040.12480469 174.57328125 1041.04648438 173.82421875 1041.99609375 C168.81060557 1048.24507564 163.48556729 1054.14584905 158.015625 1059.9921875 C156.09197155 1062.04895505 154.19275958 1064.12307684 152.3203125 1066.2265625 C148.17391136 1070.87613674 144.03734124 1075.27063212 139.265625 1079.27734375 C136.96460577 1081.25710375 134.75647827 1083.32176874 132.54882812 1085.40454102 C125.94624586 1091.61453201 119.07572466 1097.32177049 111.86181641 1102.80566406 C109.99588254 1104.22709146 108.14234645 1105.66369462 106.2890625 1107.1015625 C90.72872957 1119.07681999 74.12569898 1129.57059503 57.02734375 1139.203125 C56.14095215 1139.70312012 55.25456055 1140.20311523 54.34130859 1140.71826172 C-18.88767711 1181.76992935 -101.44455922 1202.55942349 -184.47265625 1211.453125 C-185.18349365 1211.5303479 -185.89433105 1211.6075708 -186.62670898 1211.68713379 C-192.06932873 1212.26934244 -197.51732342 1212.75654354 -202.97265625 1213.203125 C-204.55394318 1213.3339296 -204.55394318 1213.3339296 -206.16717529 1213.46737671 C-227.77420358 1215.19673775 -249.29412889 1215.5676169 -270.96088409 1215.52118301 C-273.64130209 1215.515533 -276.32171372 1215.51271832 -279.00213623 1215.51010132 C-305.20711757 1215.47293968 -331.2641429 1215.01120998 -357.36322021 1212.45635986 C-360.11455903 1212.18935393 -362.86689302 1211.93528102 -365.61962891 1211.68310547 C-448.43246597 1204.02935643 -536.54956993 1190.43590613 -612.81835938 1155.56005859 C-614.27489929 1154.89494766 -614.27489929 1154.89494766 -615.76086426 1154.21640015 C-616.49075562 1153.88201935 -617.22064697 1153.54763855 -617.97265625 1153.203125 C-613.52110117 1123.88129455 -608.85487647 1094.59590838 -604.12777686 1065.31736851 C-603.33918118 1060.43211127 -602.55141531 1055.54672033 -601.76360923 1050.66133571 C-599.90844783 1039.15730737 -598.0517484 1027.653528 -596.1940918 1016.14990234 C-594.38721242 1004.96051675 -592.58280794 993.77073484 -590.78000131 982.58069256 C-589.02453813 971.68468675 -587.26716945 960.78898979 -585.50790912 949.89359641 C-584.52480625 943.80490237 -583.54246713 937.71608756 -582.56204796 931.62696075 C-581.64573805 925.93645628 -580.72703869 920.24634279 -579.80645561 914.55652809 C-579.4689661 912.4680229 -579.13234049 910.37937789 -578.79662704 908.29058647 C-578.33980982 905.44914295 -577.87992567 902.60821274 -577.41923523 899.76739502 C-577.28616665 898.93505474 -577.15309807 898.10271447 -577.01599711 897.24515176 C-576.50844459 894.13188344 -575.97206382 891.20134772 -574.97265625 888.203125 C-567.25121093 890.52119104 -560.30193791 893.86261276 -553.09765625 897.453125 C-480.31297101 933.21206876 -402.97395015 959.15642344 -306.97265625 967.203125 C-306.31393524 967.24516052 -305.65521423 967.28719604 -304.97653198 967.33050537 C-290.56879676 968.23292802 -276.17304103 968.42122629 -261.73950195 968.44335938 C-257.94004273 968.45304878 -254.14112986 968.48418699 -250.34179688 968.515625 C-228.86272859 968.60895709 -207.51128843 967.11034068 -186.47265625 962.578125 C-185.28526855 962.32506592 -184.09788086 962.07200684 -182.87451172 961.8112793 C-152.33219445 955.00097691 -124.14152036 943.21664054 -99.97265625 923.203125 C-99.38226562 922.7596875 -98.791875 922.31625 -98.18359375 921.859375 C-81.64678918 909.00612405 -70.59852464 886.65598977 -67.97265625 866.203125 C-66.32866241 837.51287259 -73.33321656 815.65008598 -92.47265625 794.015625 C-93.96493243 792.40427076 -95.46452754 790.79965201 -96.97265625 789.203125 C-97.58496094 788.53796875 -98.19726562 787.8728125 -98.828125 787.1875 C-132.54655446 751.81550151 -182.58578918 730.32737424 -225.64007568 708.89477539 C-240.04489202 701.72299551 -254.39873672 694.53848146 -268.42041016 686.63525391 C-271.24475863 685.05044157 -274.0825241 683.49135934 -276.921875 681.93359375 C-311.94480595 662.64132444 -345.27765048 640.86973514 -375.97265625 615.203125 C-376.56353027 614.71134766 -377.1544043 614.21957031 -377.76318359 613.71289062 C-397.05237448 597.61079648 -415.60976834 580.15232366 -430.97265625 560.203125 C-431.78984131 559.15415039 -431.78984131 559.15415039 -432.62353516 558.08398438 C-460.52459085 522.16777025 -479.67472546 482.00288251 -487.97265625 437.203125 C-488.13926758 436.32785156 -488.30587891 435.45257812 -488.47753906 434.55078125 C-494.00883228 404.08858673 -492.44631671 370.72141493 -487.97265625 340.203125 C-487.82812012 339.19636719 -487.68358398 338.18960937 -487.53466797 337.15234375 C-478.32056145 274.86784075 -451.33337246 217.29102106 -410.97265625 169.203125 C-410.18761719 168.23246094 -409.40257813 167.26179687 -408.59375 166.26171875 C-401.78598279 157.96140092 -394.30708831 150.34919547 -386.72265625 142.765625 C-386.20323456 142.24529694 -385.68381287 141.72496887 -385.14865112 141.18887329 C-379.27183425 135.31321548 -373.34207058 129.54970743 -366.97265625 124.203125 C-366.07764404 123.44793579 -366.07764404 123.44793579 -365.16455078 122.67749023 C-349.24990813 109.36937075 -332.59508742 97.15019492 -314.97265625 86.203125 C-314.36566895 85.82381836 -313.75868164 85.44451172 -313.13330078 85.05371094 C-262.28727373 53.42299529 -206.16485084 31.8035145 -147.97265625 18.203125 C-147.00767212 17.97686432 -147.00767212 17.97686432 -146.02319336 17.74603271 C-112.45962769 9.90515876 -78.53898728 5.0813829 -44.23046875 1.96484375 C-43.54526154 1.90158905 -42.86005432 1.83833435 -42.15408325 1.77316284 C-28.10513213 0.5425339 -14.09714431 0.03351786 0 0 Z " fill="#0056A3" transform="translate(2489.97265625,467.796875)"/>
<path d="M0 0 C100.65 0 201.3 0 305 0 C303.87500648 13.4999223 303.87500648 13.4999223 302.81776428 20.00234985 C302.70210735 20.72167724 302.58645042 21.44100462 302.46728873 22.1821298 C302.08418043 24.55785592 301.69457901 26.93246726 301.30493164 29.30712891 C301.0237905 31.04194052 300.74305773 32.77681835 300.46269512 34.51175594 C299.69564038 39.25112173 298.92289149 43.98954369 298.14918995 48.72782826 C297.31605918 53.83655138 296.48833036 58.94614991 295.65997314 64.0556488 C294.22355209 72.91136505 292.78385195 81.76654308 291.34194946 90.62136841 C289.22557639 103.61850422 287.11460284 116.6165127 285.00509489 129.61476433 C284.01800032 135.6969603 283.03071539 141.77912535 282.04338074 147.86128235 C281.84616631 149.07615993 281.64895188 150.29103751 281.44576126 151.54272956 C280.03103182 160.25702524 278.61534526 168.97116513 277.19917297 177.68522644 C271.97196462 209.84976964 266.75363189 242.01573349 261.546875 274.18359375 C261.37705573 275.23272886 261.20723646 276.28186398 261.03227115 277.36279106 C259.31843183 287.95090179 257.60482621 298.53905033 255.89139766 309.12722754 C253.63149948 323.09225508 251.37072336 337.05714035 249.10961914 351.02197266 C248.39965102 355.40686001 247.68968553 359.79174779 246.97972107 364.17663574 C246.80301709 365.26799481 246.62631311 366.35935388 246.44425446 367.48378444 C236.45898414 429.15523284 226.47956884 490.8276288 216.5 552.5 C204.75514057 625.08162572 193.00858519 697.66297619 181.25704497 770.24352056 C180.04150241 777.75103661 178.82599374 785.25855814 177.61050415 792.76608276 C170.83269328 834.62947854 164.05431543 876.49278233 157.27327251 918.35565472 C154.19201114 937.377881 151.11110262 956.40016442 148.03040791 975.42248249 C146.20837909 986.67281199 144.38614161 997.9231076 142.56332397 1009.17330933 C140.70819159 1020.62298442 138.85369348 1032.07276214 136.99959207 1043.52260423 C136.51539904 1046.51243093 136.031084 1049.50223784 135.54674339 1052.49204063 C132.22757838 1072.98262534 128.9186956 1093.47477703 125.64243686 1113.97227061 C125.17644263 1116.88755352 124.71017595 1119.80279274 124.2438364 1122.71802044 C122.93218931 1130.91877874 121.62145535 1139.11967288 120.31724501 1147.3216176 C119.79770588 1150.58600306 119.27618429 1153.85006961 118.7541616 1157.11405873 C118.51386223 1158.61955806 118.2744652 1160.12520172 118.03603005 1161.63099742 C117.71229048 1163.67510229 117.38549209 1165.7186953 117.05793762 1167.76219177 C116.87653134 1168.90210288 116.69512506 1170.04201399 116.50822163 1171.21646786 C116 1174 116 1174 115 1177 C14.35 1177 -86.3 1177 -190 1177 C-188.85139036 1162.06807471 -188.85139036 1162.06807471 -187.77980042 1155.64961243 C-187.66005887 1154.90492276 -187.54031732 1154.16023308 -187.41694725 1153.39297706 C-187.02077199 1150.93731618 -186.61698552 1148.48297371 -186.21313477 1146.02856445 C-185.92208943 1144.23460994 -185.63152404 1142.44057752 -185.34139347 1140.64647484 C-184.54819686 1135.75007999 -183.74832696 1130.85479584 -182.94733667 1125.95967078 C-182.08527783 1120.68370824 -181.22957428 1115.40671472 -180.37313843 1110.12983704 C-178.88985216 1100.99585205 -177.40274474 1091.862496 -175.91305542 1082.72955322 C-173.53161724 1068.12903469 -171.15797951 1053.52725332 -168.78540039 1038.92529297 C-167.97306414 1033.92638235 -167.16066109 1028.92748259 -166.34822083 1023.92858887 C-166.14580054 1022.68309619 -165.94338026 1021.43760352 -165.73482603 1020.15436864 C-164.28409867 1011.22878233 -162.83227504 1002.30337474 -161.37992859 993.37805176 C-156.0080898 960.36487954 -150.64866448 927.34972509 -145.3046875 894.33203125 C-145.13092716 893.25848326 -144.95716682 892.18493526 -144.77814102 891.07885551 C-143.03386942 880.30199587 -141.28994551 869.52508 -139.5462966 858.74811959 C-137.2637476 844.6403833 -134.98024115 830.53280217 -132.69628906 816.42529297 C-132.43317444 814.80007981 -132.43317444 814.80007981 -132.16474438 813.14203405 C-131.45609989 808.76487236 -130.74745128 804.38771132 -130.03879404 800.01055169 C-128.80118722 792.36621671 -127.5636564 784.72186943 -126.32617188 777.07751465 C-121.61791004 747.99306111 -116.90897628 718.90871642 -112.19963813 689.82443714 C-97.1678969 596.99011444 -82.14035132 504.15511398 -67.1180191 411.31926823 C-54.73141089 334.77183 -42.34325264 258.22464316 -29.95024526 181.67824066 C-28.87480891 175.03571285 -27.79939959 168.39318067 -26.72402036 161.75064361 C-26.03788228 157.51242634 -25.35173292 153.2742109 -24.66558194 149.03599572 C-24.32958895 146.96062105 -23.9936004 144.88524565 -23.65761638 142.80986953 C-21.89514752 131.92312167 -20.13232172 121.03643191 -18.36831665 110.14993286 C-17.7606608 106.39960047 -17.15302933 102.64926412 -16.54541016 98.89892578 C-16.32368004 97.53043436 -16.32368004 97.53043436 -16.09747052 96.13429666 C-14.16052754 84.17874319 -12.22835581 72.2224296 -10.30068302 60.265378 C-9.3048281 54.08848561 -8.30737701 47.91185132 -7.3094725 41.73528975 C-6.51966675 36.84587685 -5.73198665 31.95612805 -4.94598341 27.0661025 C-4.47112097 24.11506438 -3.99420704 21.16436065 -3.51668382 18.21375203 C-3.19344203 16.21244542 -2.87273001 14.21073072 -2.5520916 12.20900536 C-2.36069162 11.02889696 -2.16929165 9.84878857 -1.97209167 8.63291931 C-1.80731921 7.61019897 -1.64254675 6.58747862 -1.47278118 5.53376675 C-1 3 -1 3 0 0 Z " fill="#0056A3" transform="translate(1568,489)"/>
<path d="M0 0 C47.61571528 -0.05140349 95.23143261 -0.09915897 142.84716797 -0.12702942 C143.55295258 -0.12744359 144.2587372 -0.12785776 144.98590922 -0.12828448 C160.32797716 -0.13726517 175.67004538 -0.14557544 191.01211405 -0.15319599 C198.53688469 -0.15693769 206.06165525 -0.16082739 213.58642578 -0.16479492 C214.70957727 -0.16538334 214.70957727 -0.16538334 215.85541868 -0.16598364 C240.0840854 -0.17874624 264.312731 -0.20126407 288.54138495 -0.22889166 C313.45902148 -0.257253 338.37664634 -0.27567103 363.29429873 -0.28174497 C366.82133143 -0.28260932 370.34836408 -0.28358622 373.87539673 -0.28463173 C374.91655654 -0.28493513 374.91655654 -0.28493513 375.97874988 -0.28524467 C387.10970862 -0.28877687 398.24063107 -0.30265584 409.37157506 -0.3204961 C420.58751333 -0.33824844 431.8034167 -0.3446402 443.01937193 -0.34050413 C449.08603497 -0.33859141 455.15259234 -0.34142771 461.21923637 -0.35761642 C466.79032084 -0.37237295 472.36123003 -0.37285183 477.9323231 -0.36269668 C479.93139454 -0.36144432 481.93047759 -0.36511523 483.92952669 -0.37464955 C525.82982385 -0.56261697 567.00962211 8.07120295 598.40625 37.34765625 C623.82217538 63.33773657 630.02875976 99.64090825 636.68594551 133.85537934 C637.53164537 138.19115275 638.387872 142.5248486 639.24279785 146.85881042 C640.70418253 154.27443399 642.15917052 161.69128786 643.60955811 169.10906982 C645.70668707 179.83437959 647.81405671 190.55765797 649.92391324 201.28047037 C653.20435321 217.95347189 656.47792897 234.62781093 659.74609375 251.30322266 C663.35320329 269.70778744 666.96973028 288.11047681 670.59375 306.51171875 C671.57612839 311.50048082 672.55845644 316.4892528 673.54077148 321.47802734 C673.89465643 323.27516489 673.89465643 323.27516489 674.25569057 325.10860825 C675.90918666 333.50648595 677.56073523 341.9047451 679.21118164 350.30322266 C679.56344173 352.09571505 679.56344173 352.09571505 679.92281818 353.9244194 C680.15811835 355.12176334 680.39341852 356.31910728 680.635849 357.55273438 C686.02747398 384.9883393 691.43313257 412.42115492 696.84571838 439.85263062 C697.30156879 442.1629299 697.7574188 444.47322927 698.21326673 446.78352904 C698.51771508 448.32651311 698.82216616 449.86949664 699.12661994 451.41247964 C701.37524859 462.80883308 703.62200925 474.20555348 705.86743164 485.60253906 C706.15965023 487.08566263 706.45187098 488.56878578 706.74409389 490.05190849 C706.8881461 490.7830216 707.0321983 491.51413471 707.18061572 492.26740277 C707.47031865 493.73774 707.76002198 495.20807715 708.04972571 496.67841423 C708.76680367 500.31782501 709.48385399 503.95724123 710.20084953 507.59666824 C713.40767135 523.87360835 716.62136433 540.14914146 719.85113239 556.42154598 C721.70971326 565.78582054 723.56329959 575.1510723 725.41257 584.51718998 C726.65703438 590.81811607 727.90860718 597.11757079 729.16585732 603.41595745 C729.9186982 607.19663726 730.66449523 610.97867889 731.40811157 614.76118279 C731.74866859 616.48586252 732.09218467 618.20996104 732.43890381 619.93341255 C732.90507172 622.25247326 733.36074295 624.57335229 733.8137207 626.89501953 C734.06902054 628.18103058 734.32432037 629.46704163 734.58735657 630.79202271 C734.95653763 633.66211438 734.98704309 635.32509146 734 638 C733.63874023 637.08637695 733.27748047 636.17275391 732.90527344 635.23144531 C726.62461819 619.36489131 720.31766108 603.51063029 713.625 587.8125 C713.17479492 586.74870117 712.72458984 585.68490234 712.26074219 584.58886719 C708.81525195 576.57604109 704.96056611 568.80609951 701.02209473 561.02871704 C699.38467116 557.77865713 697.78154032 554.51187852 696.17578125 551.24609375 C688.26374275 535.20635295 680.08404311 519.41679724 671 504 C670.40864258 502.99420898 669.81728516 501.98841797 669.20800781 500.95214844 C655.68030924 478.0169709 641.42002822 455.70982826 626 434 C625.1035376 432.73784668 625.1035376 432.73784668 624.18896484 431.45019531 C617.32205174 421.80992044 610.29397208 412.32137007 603 403 C602.14301585 401.89599889 601.28624989 400.79182837 600.4296875 399.6875 C588.1679849 383.92728734 575.50893343 368.37335823 561.96484375 353.69140625 C561.25956543 352.92642822 561.25956543 352.92642822 560.54003906 352.14599609 C559.27619153 350.78313956 558.0036472 349.42836245 556.73046875 348.07421875 C555 346 555 346 555 344 C554.34 344 553.68 344 553 344 C551.4140625 342.390625 551.4140625 342.390625 549.625 340.25 C547.66242273 337.93096298 545.7411705 335.74780716 543.5625 333.625 C542 332 542 332 542 330 C541.34 330 540.68 330 540 330 C540 329.34 540 328.68 540 328 C539.34 328 538.68 328 538 328 C536.63598633 326.61694336 536.63598633 326.61694336 535.01953125 324.65234375 C530.50969171 319.35015614 525.61782546 314.47131131 520.6875 309.5625 C519.78193359 308.65306641 518.87636719 307.74363281 517.94335938 306.80664062 C517.07904297 305.94361328 516.21472656 305.08058594 515.32421875 304.19140625 C514.54135498 303.40967041 513.75849121 302.62793457 512.9519043 301.82250977 C511.12569468 299.94470633 511.12569468 299.94470633 509 299 C509 298.34 509 297.68 509 297 C508.34 297 507.68 297 507 297 C507 296.34 507 295.68 507 295 C506.42507813 294.75378906 505.85015625 294.50757813 505.2578125 294.25390625 C502.64360173 292.80206947 500.93663792 291.09712451 498.875 288.9375 C496.22095 286.08428067 496.22095 286.08428067 493 284 C493 283.34 493 282.68 493 282 C492.195625 281.6596875 492.195625 281.6596875 491.375 281.3125 C488.17539839 279.54429911 485.70962777 277.46329797 483 275 C483 274.34 483 273.68 483 273 C482.13375 272.5978125 482.13375 272.5978125 481.25 272.1875 C478.94449957 270.97070811 476.97943808 269.69666121 475 268 C475 267.34 475 266.68 475 266 C474.40558105 265.72470459 473.81116211 265.44940918 473.19873047 265.16577148 C471.10501787 264.0556807 469.57802695 262.92151279 467.8203125 261.34765625 C467.22863281 260.82421631 466.63695312 260.30077637 466.02734375 259.76147461 C465.39957031 259.20081299 464.77179688 258.64015137 464.125 258.0625 C457.5163418 252.24691299 450.71647559 246.76592251 443.75927734 241.37695312 C441.36633594 239.50404312 439.00916828 237.58844877 436.64916992 235.67431641 C428.07865236 228.73633263 419.24865251 222.18250396 410.33056641 215.69970703 C408.19532401 214.14245189 406.07074649 212.57195138 403.94921875 210.99609375 C381.14517668 194.16065359 357.1712938 178.78244414 333 164 C331.87609863 163.30680664 331.87609863 163.30680664 330.72949219 162.59960938 C323.67062709 158.24615304 316.57125355 154.19183792 309.10546875 150.5625 C305.63187188 148.8147783 302.25244341 146.92419226 298.875 145 C264.27404492 125.38958096 228.74841393 107.6345658 192.20336914 91.94671631 C190.02407547 91.01034445 187.84684797 90.06930243 185.66992188 89.12744141 C124.22282058 62.59904467 60.53988461 42.45295095 -4 25 C-3.62938128 18.73782161 -2.81008872 12.73203734 -1.45703125 6.6015625 C-1.04868042 4.73878662 -1.04868042 4.73878662 -0.63208008 2.83837891 C-0.31920044 1.43338135 -0.31920044 1.43338135 0 0 Z " fill="#FEA701" transform="translate(58,489)"/>
</svg>
